<svg width="424" height="350" viewBox="0 0 424 350" fill="none" xmlns="http://www.w3.org/2000/svg">
<path d="M168.573 346.141C168.703 345.118 171.582 343.003 172.417 342.619C173.252 342.236 173.697 339.162 172.8 336.664C171.903 334.165 172.631 329.49 173.294 328.723C173.846 328.08 174.746 326.442 174.308 325.139C174.077 324.457 174.184 323.693 174.639 323.131C175.75 321.764 177.277 321.653 177.992 322.316C178.889 323.148 185.676 329.233 188.24 327.631C190.803 326.03 195.284 325.454 202.136 325.581C208.416 325.698 213.998 325.224 215.775 326.426C216.162 326.689 216.565 326.92 217.013 327.053C220.665 328.132 227.27 329.896 233.005 329.425C237.232 329.077 241.189 328.846 243.288 328.736C244.204 328.687 245.059 329.194 245.459 330.019C246.495 332.147 248.75 335.998 251.447 335.764C255.16 335.442 258.812 333.457 259.517 330.192C260.222 326.926 270.723 310.532 274.856 308.127C278.245 306.158 287.647 301.405 290.916 299.764C291.66 299.391 292.466 299.163 293.294 299.092C301.735 298.383 350.802 293.897 368.454 284.078C381.307 279 400.035 271.988 406.708 269.503C408.271 268.921 409.48 267.647 409.98 266.055L422.843 225.199C422.954 224.848 422.911 224.464 422.726 224.146L414.477 209.974C414.191 209.483 413.528 209.382 413.109 209.766L409.698 212.898C409.373 213.197 408.924 213.324 408.492 213.239L361.755 204.142C361.365 204.067 361.017 203.853 360.77 203.541L341.091 178.435C340.997 178.315 340.945 178.166 340.945 178.01V175.664C340.945 175.492 340.863 175.332 340.72 175.238C340.337 174.988 339.385 174.523 337.309 174.215C337.101 174.186 336.9 174.29 336.812 174.478L336.727 174.657C336.633 174.858 336.412 174.975 336.191 174.936C335.684 174.842 334.797 174.556 334.291 173.688C334.177 173.494 334.203 173.25 334.339 173.071L335.785 171.19C335.935 170.995 335.925 170.719 335.759 170.537L334.827 169.517C334.742 169.426 334.684 169.315 334.654 169.195L334.278 167.691C334.209 167.421 333.891 167.317 333.673 167.489C332.949 168.077 331.36 169.033 329.037 168.662C328.845 168.633 328.673 168.526 328.553 168.376C327.399 166.953 326.581 165.511 326.236 164.861C326.119 164.643 325.895 164.507 325.651 164.507H324.683C324.3 164.507 323.981 164.214 323.946 163.834L323.712 161.277C323.695 161.089 323.614 160.91 323.484 160.774L320.083 157.141C319.969 157.021 319.904 156.865 319.897 156.699C319.842 155.461 319.569 150.068 318.949 149.33C318.448 148.739 317.428 148.827 316.882 148.928C316.652 148.97 316.414 148.882 316.268 148.697L311.684 142.881C311.586 142.758 311.59 142.585 311.69 142.468L312.074 142.017C312.168 141.906 312.2 141.757 312.161 141.617L311.901 140.688L311.619 140.266C311.551 140.165 311.508 140.048 311.495 139.928L311.226 137.497C311.209 137.341 311.086 137.215 310.93 137.192L309.231 136.948C309.072 136.926 308.955 136.789 308.955 136.63V133.498C308.955 133.348 309.029 133.209 309.153 133.124L310.134 132.455C310.264 132.367 310.443 132.393 310.54 132.517L311.417 133.631C311.59 133.849 311.927 133.826 312.067 133.586L312.509 132.829C312.616 132.643 312.691 132.445 312.733 132.234L313.467 128.465C313.529 128.15 313.386 127.828 313.11 127.666L309.471 125.505L309.354 119.92C309.348 119.585 309.14 119.293 308.828 119.176C307.275 118.588 302.616 116.561 300.65 112.746C300.527 112.509 300.296 112.347 300.029 112.334C297.905 112.233 295.607 111.625 295.296 108.327C295.273 108.103 295.14 107.908 294.948 107.798C293.827 107.151 292.3 106.05 291.65 105.569C291.475 105.439 291.432 105.192 291.556 105.01L291.712 104.783C291.767 104.705 291.848 104.653 291.943 104.637L294.207 104.26C294.353 104.234 294.448 104.087 294.402 103.945L294.194 103.262C294.158 103.145 294.045 103.067 293.921 103.074L290.448 103.291C290.211 103.308 289.98 103.2 289.834 103.012L288.827 101.683C288.681 101.492 288.404 101.462 288.222 101.618L287.394 102.33C287.186 102.508 286.868 102.447 286.738 102.206L284.873 98.7071C284.752 98.4829 284.746 98.2165 284.85 97.9858L285.701 96.1078C285.825 95.8317 285.802 95.5133 285.633 95.2598C284.441 93.4534 279.616 86.0261 278.186 81.9972C278.082 81.7048 277.809 81.5099 277.497 81.5099H264.017C263.767 81.5099 263.533 81.3799 263.4 81.1687L261.671 78.4103C261.606 78.3031 261.574 78.1829 261.58 78.0562C261.629 77.1984 261.697 73.5757 259.429 71.5451C258.624 70.8205 257.571 70.4307 256.492 70.3527C250.118 69.8946 210.093 67.0127 203.864 66.5708L158.329 30.1458C158.329 30.1458 153.397 24.5737 144.751 21.4351C136.746 18.4882 124.835 10.9959 123.041 9.26744C121.248 7.53895 116.446 4.84874 111.13 4.59207C106.793 4.18269 98.1469 2.27225 94.8102 1.51198C93.9492 1.31703 93.0492 1.52497 92.3637 2.08056L89.8261 4.13071C89.3453 4.51734 88.7897 4.80001 88.1951 4.95921L50.4445 15.0085C49.6485 15.2197 49.3626 16.2041 49.9214 16.8117L68.4377 36.8421C68.7464 37.1767 68.6554 37.7161 68.2525 37.9305L63.6681 40.3673C62.5959 40.9391 61.7642 41.8748 61.3256 43.0055L59.3177 48.1747C59.0805 48.7855 58.5379 49.2209 57.8913 49.3184L45.6749 51.1866C45.0479 51.2841 44.4923 51.6447 44.1511 52.1808L39.7324 59.137C39.5797 59.3774 39.388 59.5951 39.1671 59.7771L31.5448 66.1159C31.1679 66.4311 30.6708 66.5643 30.1867 66.4831L9.3149 63.0326C8.73007 62.9351 8.16799 63.3023 8.02503 63.8806C7.29724 66.8307 5.2536 75.366 5.2536 78.5208C5.2536 81.1622 3.85975 84.382 3.85975 84.382L1.12731 89.9314C0.935615 90.318 1.24103 90.7664 1.6699 90.7274C4.18141 90.5032 10.7087 89.9899 11.482 90.6592C12.4437 91.4909 14.4906 92.7711 14.6856 94.1812C15.0072 97.3847 17.9509 99.1132 18.8476 99.6883C20.5111 100.65 19.6793 102.57 19.6793 102.57C19.6793 102.57 19.6144 104.682 23.2663 107.629C24.3547 108.461 25.1865 110.832 24.9298 112.239C24.6731 113.646 29.2673 116.658 29.2673 116.658C29.2673 116.658 29.8423 116.947 29.8423 117.62C29.8423 118.292 31.0445 121.317 33.4943 123.335C34.7419 124.631 35.7036 127.659 35.7036 127.659C35.7036 127.659 37.3346 135.178 41.3407 135.217C41.6429 135.217 41.9385 135.324 42.1725 135.515C42.6468 135.905 42.9067 136.493 42.4259 137.939C42.4259 137.939 41.3212 139.814 42.3284 140.87C43.3356 141.926 44.2973 142.55 45.3078 142.455C46.4612 143.031 47.3254 143.56 47.3742 144.376C47.4229 145.191 49.0084 151.147 51.9358 152.924C53.6156 154.029 53.7618 156.576 53.7131 157.68C53.6643 158.785 51.4062 163.395 53.4726 165.27C55.539 167.145 57.3942 169.497 58.3559 171.866C59.3176 174.234 63.4147 175.644 67.8334 177.373C71.9629 179.199 80.7061 184.963 82.818 194.089C84.9299 203.024 89.1569 209.33 90.1836 210.614C91.2103 211.897 92.8088 215.354 91.0803 218.619C89.3518 221.823 88.5818 225.407 90.8236 230.722C92.4254 235.524 92.9355 239.303 91.7853 240.586C91.7853 240.586 93.4488 246.99 96.6524 250.002C99.8559 253.014 100.623 255.892 100.623 255.892C100.623 255.892 103.631 261.978 111.062 264.346C117.914 266.715 128.418 277.924 130.147 285.16C131.661 291.492 134.988 298.315 136.567 300.564C136.954 301.113 137.246 301.723 137.464 302.357C138.848 306.383 143.763 316.958 149.55 319.996C152.559 322.173 160.116 330.052 160.438 335.942C160.438 338.184 161.656 340.043 162.614 340.426C163.443 340.757 165.272 345.186 165.308 347.548C165.318 348.126 165.831 348.552 166.4 348.441C167.29 348.266 168.372 347.72 168.573 346.128V346.141Z" fill="white"/>
<path opacity="0.3" d="M168.573 346.141C168.703 345.118 171.582 343.003 172.417 342.619C173.252 342.236 173.697 339.162 172.8 336.664C171.903 334.165 172.631 329.49 173.294 328.723C173.846 328.08 174.746 326.442 174.308 325.139C174.077 324.457 174.184 323.693 174.639 323.131C175.75 321.764 177.277 321.653 177.992 322.316C178.889 323.148 185.676 329.233 188.24 327.631C190.803 326.03 195.284 325.454 202.136 325.581C208.416 325.698 213.998 325.224 215.775 326.426C216.162 326.689 216.565 326.92 217.013 327.053C220.665 328.132 227.27 329.896 233.005 329.425C237.232 329.077 241.189 328.846 243.288 328.736C244.204 328.687 245.059 329.194 245.459 330.019C246.495 332.147 248.75 335.998 251.447 335.764C255.16 335.442 258.812 333.457 259.517 330.192C260.222 326.926 270.723 310.532 274.856 308.127C278.245 306.158 287.647 301.405 290.916 299.764C291.66 299.391 292.466 299.163 293.294 299.092C301.735 298.383 350.802 293.897 368.454 284.078C381.307 279 400.035 271.988 406.708 269.503C408.271 268.921 409.48 267.647 409.98 266.055L422.843 225.199C422.954 224.848 422.911 224.464 422.726 224.146L414.477 209.974C414.191 209.483 413.528 209.382 413.109 209.766L409.698 212.898C409.373 213.197 408.924 213.324 408.492 213.239L361.755 204.142C361.365 204.067 361.017 203.853 360.77 203.541L341.091 178.435C340.997 178.315 340.945 178.166 340.945 178.01V175.664C340.945 175.492 340.863 175.332 340.72 175.238C340.337 174.988 339.385 174.523 337.309 174.215C337.101 174.186 336.9 174.29 336.812 174.478L336.727 174.657C336.633 174.858 336.412 174.975 336.191 174.936C335.684 174.842 334.797 174.556 334.291 173.688C334.177 173.494 334.203 173.25 334.339 173.071L335.785 171.19C335.935 170.995 335.925 170.719 335.759 170.537L334.827 169.517C334.742 169.426 334.684 169.315 334.654 169.195L334.278 167.691C334.209 167.421 333.891 167.317 333.673 167.489C332.949 168.077 331.36 169.033 329.037 168.662C328.845 168.633 328.673 168.526 328.553 168.376C327.399 166.953 326.581 165.511 326.236 164.861C326.119 164.643 325.895 164.507 325.651 164.507H324.683C324.3 164.507 323.981 164.214 323.946 163.834L323.712 161.277C323.695 161.089 323.614 160.91 323.484 160.774L320.083 157.141C319.969 157.021 319.904 156.865 319.897 156.699C319.842 155.461 319.569 150.068 318.949 149.33C318.448 148.739 317.428 148.827 316.882 148.928C316.652 148.97 316.414 148.882 316.268 148.697L311.684 142.881C311.586 142.758 311.59 142.585 311.69 142.468L312.074 142.017C312.168 141.906 312.2 141.757 312.161 141.617L311.901 140.688L311.619 140.266C311.551 140.165 311.508 140.048 311.495 139.928L311.226 137.497C311.209 137.341 311.086 137.215 310.93 137.192L309.231 136.948C309.072 136.926 308.955 136.789 308.955 136.63V133.498C308.955 133.348 309.029 133.209 309.153 133.124L310.134 132.455C310.264 132.367 310.443 132.393 310.54 132.517L311.417 133.631C311.59 133.849 311.927 133.826 312.067 133.586L312.509 132.829C312.616 132.643 312.691 132.445 312.733 132.234L313.467 128.465C313.529 128.15 313.386 127.828 313.11 127.666L309.471 125.505L309.354 119.92C309.348 119.585 309.14 119.293 308.828 119.176C307.275 118.588 302.616 116.561 300.65 112.746C300.527 112.509 300.296 112.347 300.029 112.334C297.905 112.233 295.607 111.625 295.296 108.327C295.273 108.103 295.14 107.908 294.948 107.798C293.827 107.151 292.3 106.05 291.65 105.569C291.475 105.439 291.432 105.192 291.556 105.01L291.712 104.783C291.767 104.705 291.848 104.653 291.943 104.637L294.207 104.26C294.353 104.234 294.448 104.087 294.402 103.945L294.194 103.262C294.158 103.145 294.045 103.067 293.921 103.074L290.448 103.291C290.211 103.308 289.98 103.2 289.834 103.012L288.827 101.683C288.681 101.492 288.404 101.462 288.222 101.618L287.394 102.33C287.186 102.508 286.868 102.447 286.738 102.206L284.873 98.7071C284.752 98.4829 284.746 98.2165 284.85 97.9858L285.701 96.1078C285.825 95.8317 285.802 95.5133 285.633 95.2598C284.441 93.4534 279.616 86.0261 278.186 81.9972C278.082 81.7048 277.809 81.5099 277.497 81.5099H264.017C263.767 81.5099 263.533 81.3799 263.4 81.1687L261.671 78.4103C261.606 78.3031 261.574 78.1829 261.58 78.0562C261.629 77.1984 261.697 73.5757 259.429 71.5451C258.624 70.8205 257.571 70.4307 256.492 70.3527C250.118 69.8946 210.093 67.0127 203.864 66.5708L158.329 30.1458C158.329 30.1458 153.397 24.5737 144.751 21.4351C136.746 18.4882 124.835 10.9959 123.041 9.26744C121.248 7.53895 116.446 4.84874 111.13 4.59207C106.793 4.18269 98.1469 2.27225 94.8102 1.51198C93.9492 1.31703 93.0492 1.52497 92.3637 2.08056L89.8261 4.13071C89.3453 4.51734 88.7897 4.80001 88.1951 4.95921L50.4445 15.0085C49.6485 15.2197 49.3626 16.2041 49.9214 16.8117L68.4377 36.8421C68.7464 37.1767 68.6554 37.7161 68.2525 37.9305L63.6681 40.3673C62.5959 40.9391 61.7642 41.8748 61.3256 43.0055L59.3177 48.1747C59.0805 48.7855 58.5379 49.2209 57.8913 49.3184L45.6749 51.1866C45.0479 51.2841 44.4923 51.6447 44.1511 52.1808L39.7324 59.137C39.5797 59.3774 39.388 59.5951 39.1671 59.7771L31.5448 66.1159C31.1679 66.4311 30.6708 66.5643 30.1867 66.4831L9.3149 63.0326C8.73007 62.9351 8.16799 63.3023 8.02503 63.8806C7.29724 66.8307 5.2536 75.366 5.2536 78.5208C5.2536 81.1622 3.85975 84.382 3.85975 84.382L1.12731 89.9314C0.935615 90.318 1.24103 90.7664 1.6699 90.7274C4.18141 90.5032 10.7087 89.9899 11.482 90.6592C12.4437 91.4909 14.4906 92.7711 14.6856 94.1812C15.0072 97.3847 17.9509 99.1132 18.8476 99.6883C20.5111 100.65 19.6793 102.57 19.6793 102.57C19.6793 102.57 19.6144 104.682 23.2663 107.629C24.3547 108.461 25.1865 110.832 24.9298 112.239C24.6731 113.646 29.2673 116.658 29.2673 116.658C29.2673 116.658 29.8423 116.947 29.8423 117.62C29.8423 118.292 31.0445 121.317 33.4943 123.335C34.7419 124.631 35.7036 127.659 35.7036 127.659C35.7036 127.659 37.3346 135.178 41.3407 135.217C41.6429 135.217 41.9385 135.324 42.1725 135.515C42.6468 135.905 42.9067 136.493 42.4259 137.939C42.4259 137.939 41.3212 139.814 42.3284 140.87C43.3356 141.926 44.2973 142.55 45.3078 142.455C46.4612 143.031 47.3254 143.56 47.3742 144.376C47.4229 145.191 49.0084 151.147 51.9358 152.924C53.6156 154.029 53.7618 156.576 53.7131 157.68C53.6643 158.785 51.4062 163.395 53.4726 165.27C55.539 167.145 57.3942 169.497 58.3559 171.866C59.3176 174.234 63.4147 175.644 67.8334 177.373C71.9629 179.199 80.7061 184.963 82.818 194.089C84.9299 203.024 89.1569 209.33 90.1836 210.614C91.2103 211.897 92.8088 215.354 91.0803 218.619C89.3518 221.823 88.5818 225.407 90.8236 230.722C92.4254 235.524 92.9355 239.303 91.7853 240.586C91.7853 240.586 93.4488 246.99 96.6524 250.002C99.8559 253.014 100.623 255.892 100.623 255.892C100.623 255.892 103.631 261.978 111.062 264.346C117.914 266.715 128.418 277.924 130.147 285.16C131.661 291.492 134.988 298.315 136.567 300.564C136.954 301.113 137.246 301.723 137.464 302.357C138.848 306.383 143.763 316.958 149.55 319.996C152.559 322.173 160.116 330.052 160.438 335.942C160.438 338.184 161.656 340.043 162.614 340.426C163.443 340.757 165.272 345.186 165.308 347.548C165.318 348.126 165.831 348.552 166.4 348.441C167.29 348.266 168.372 347.72 168.573 346.128V346.141Z" fill="url(#paint0_linear_1_2488)"/>
<defs>
<linearGradient id="paint0_linear_1_2488" x1="1.06885" y1="174.95" x2="422.904" y2="174.95" gradientUnits="userSpaceOnUse">
<stop stop-color="#178B48"/>
<stop offset="1" stop-color="#337398"/>
</linearGradient>
</defs>
</svg>
